<svg style="display: none;" xmlns="http://www.w3.org/2000/svg">
    <symbol id="icon-menu" viewBox="0 0 24 24"><line x1="3" y1="12" x2="21" y2="12"></line><line x1="3" y1="6" x2="21" y2="6"></line><line x1="3" y1="18" x2="21" y2="18"></line></symbol>
    <symbol id="icon-sparkles" viewBox="0 0 24 24"><path d="M12 3v18M3 12h18M6.5 6.5l11 11M17.5 6.5l-11 11"/></symbol>
    <symbol id="icon-download" viewBox="0 0 24 24"><path d="M21 15v4a2 2 0 0 1-2 2H5a2 2 0 0 1-2-2v-4" /><polyline points="7 10 12 15 17 10"></polyline><line x1="12" y1="15" x2="12" y2="3"></line></symbol>
    <symbol id="icon-copy" viewBox="0 0 24 24"><rect x="9" y="9" width="13" height="13" rx="2" ry="2"></rect><path d="M5 15H4a2 2 0 0 1-2-2V4a2 2 0 0 1 2-2h9a2 2 0 0 1 2 2v1" /></symbol>
    <symbol id="icon-check" viewBox="0 0 24 24"><polyline points="20 6 9 17 4 12"></polyline></symbol>
    <symbol id="icon-image" viewBox="0 0 24 24"><rect x="3" y="3" width="18" height="18" rx="2" ry="2"></rect><circle cx="8.5" cy="8.5" r="1.5"></circle><polyline points="21 15 16 10 5 21"></polyline></symbol>
    <symbol id="icon-arrow-right" viewBox="0 0 24 24"><line x1="5" y1="12" x2="19" y2="12"></line><polyline points="12 5 19 12 12 19"></polyline></symbol>
    <symbol id="icon-github" viewBox="0 0 24 24"><path d="M9 19c-5 1.5-5-2.5-7-3m14 6v-3.87a3.37 3.37 0 0 0-.94-2.61c3.14-.35 6.44-1.54 6.44-7A5.44 5.44 0 0 0 20 4.77 5.07 5.07 0 0 0 19.91 1S18.73.65 16 2.48a13.38 13.38 0 0 0-7 0C6.27.65 5.09 1 5.09 1A5.07 5.07 0 0 0 5 4.77a5.44 5.44 0 0 0-1.5 3.78c0 5.42 3.3 6.61 6.44 7A3.37 3.37 0 0 0 9 18.13V22" /></symbol>
    <symbol id="icon-zap" viewBox="0 0 24 24"><polygon points="13 2 3 14 12 14 11 22 21 10 12 10 13 2"></polygon></symbol>
    <symbol id="icon-cpu" viewBox="0 0 24 24"><rect x="4" y="4" width="16" height="16" rx="2" ry="2"></rect><rect x="9" y="9" width="6" height="6"></rect><line x1="9" y1="1" x2="9" y2="4"></line><line x1="15" y1="1" x2="15" y2="4"></line><line x1="9" y1="20" x2="9" y2="23"></line><line x1="15" y1="20" x2="15" y2="23"></line><line x1="20" y1="9" x2="23" y2="9"></line><line x1="20" y1="14" x2="23" y2="14"></line><line x1="1" y1="9" x2="4" y2="9"></line><line x1="1" y1="14" x2="4" y2="14"></line></symbol>
    <symbol id="icon-smartphone" viewBox="0 0 24 24"><rect x="5" y="2" width="14" height="20" rx="2" ry="2"></rect><line x1="12" y1="18" x2="12.01" y2="18"></line></symbol>
    <symbol id="icon-code" viewBox="0 0 24 24"><polyline points="16 18 22 12 16 6"></polyline><polyline points="8 6 2 12 8 18"></polyline></symbol>
    <symbol id="icon-app-window" viewBox="0 0 24 24"><rect x="2" y="4" width="20" height="16" rx="2" ry="2"></rect><line x1="10" y1="4" x2="10" y2="20"></line></symbol>
    <symbol id="icon-server" viewBox="0 0 24 24"><rect x="2" y="2" width="20" height="8" rx="2" ry="2"></rect><rect x="2" y="14" width="20" height="8" rx="2" ry="2"></rect><line x1="6" y1="6" x2="6.01" y2="6"></line><line x1="6" y1="18" x2="6.01" y2="18"></line></symbol>
    <symbol id="icon-database" viewBox="0 0 24 24"><ellipse cx="12" cy="5" rx="9" ry="3"></ellipse><path d="M21 12c0 1.66-4 3-9 3s-9-1.34-9-3" /><path d="M3 5v14c0 1.66 4 3 9 3s9-1.34 9-3V5" /></symbol>
    <symbol id="icon-layout" viewBox="0 0 24 24"><rect x="3" y="3" width="18" height="18" rx="2" ry="2"></rect><line x1="3" y1="9" x2="21" y2="9"></line><line x1="9" y1="21" x2="9" y2="9"></line></symbol>
    <symbol id="icon-play" viewBox="0 0 24 24"><polygon points="5 3 19 12 5 21 5 3"></polygon></symbol>
    <symbol id="icon-check-circle" viewBox="0 0 24 24"><path d="M22 11.08V12a10 10 0 1 1-5.93-9.14" /><polyline points="22 4 12 14.01 9 11.01"></polyline></symbol>
    <symbol id="icon-home" viewBox="0 0 24 24"><path d="M3 9l9-7 9 7v11a2 2 0 0 1-2 2H5a2 2 0 0 1-2-2z" /><polyline points="9 22 9 12 15 12 15 22"></polyline></symbol>
    <symbol id="icon-cloud" viewBox="0 0 24 24"><path d="M17.5 19H9a7 7 0 1 1 6.71-9h1.79a4.5 4.5 0 1 1 0 9Z" /></symbol>
    <symbol id="icon-fb" viewBox="0 0 24 24"><path d="M18 2h-3a5 5 0 0 0-5 5v3H7v4h3v8h4v-8h3l1-4h-4V7a1 1 0 0 1 1-1h3z"></path></symbol>
    <symbol id="icon-twitter" viewBox="0 0 24 24"><path d="M22 4s-.7 2.1-2 3.4c1.6 10-9.4 17.3-18 11.6 2.2.1 4.4-.6 6-2C3 15.5.5 9.6 3 5c2.2 2.6 5.6 4.1 9 4-.9-4.2 4-6.6 7-3.8 1.1 0 3-1.2 3-1.2z"></path></symbol>
    <symbol id="icon-linkedin" viewBox="0 0 24 24"><path d="M16 8a6 6 0 0 1 6 6v7h-4v-7a2 2 0 0 0-2-2 2 2 0 0 0-2 2v7h-4v-7a6 6 0 0 1 6-6z"></path><rect x="2" y="9" width="4" height="12"></rect><circle cx="4" cy="4" r="2"></circle></symbol>
    <symbol id="icon-git-merge" viewBox="0 0 24 24"><circle cx="18" cy="18" r="3"></circle><circle cx="6" cy="6" r="3"></circle><path d="M6 21V9a9 9 0 0 0 9 9" /></symbol>
    <symbol id="icon-external" viewBox="0 0 24 24"><path d="M18 13v6a2 2 0 0 1-2 2H5a2 2 0 0 1-2-2V8a2 2 0 0 1 2-2h6"></path><polyline points="15 3 21 3 21 9"></polyline><line x1="10" y1="14" x2="21" y2="3"></line></symbol>
    <symbol id="icon-share" viewBox="0 0 24 24"><circle cx="18" cy="5" r="3"></circle><circle cx="6" cy="12" r="3"></circle><circle cx="18" cy="19" r="3"></circle><line x1="8.59" y1="13.51" x2="15.42" y2="17.49"></line><line x1="15.41" y1="6.51" x2="8.59" y2="10.49"></line></symbol>
    <symbol id="icon-pause" viewBox="0 0 24 24"><rect x="6" y="4" width="4" height="16"></rect><rect x="14" y="4" width="4" height="16"></rect></symbol>
    <symbol id="icon-x" viewBox="0 0 24 24"><line x1="18" y1="6" x2="6" y2="18"></line><line x1="6" y1="6" x2="18" y2="18"></line></symbol>
    <symbol id="icon-mail" viewBox="0 0 24 24"><path d="M4 4h16c1.1 0 2 .9 2 2v12c0 1.1-.9 2-2 2H4c-1.1 0-2-.9-2-2V6c0-1.1.9-2 2-2z" /><polyline points="22,6 12,13 2,6"></polyline></symbol>
    <symbol id="icon-calendar" viewBox="0 0 24 24"><rect x="3" y="4" width="18" height="18" rx="2" ry="2"></rect><line x1="16" y1="2" x2="16" y2="6"></line><line x1="8" y1="2" x2="8" y2="6"></line><line x1="3" y1="10" x2="21" y2="10"></line></symbol>
    <symbol id="icon-map-pin" viewBox="0 0 24 24"><path d="M21 10c0 7-9 13-9 13s-9-6-9-13a9 9 0 0 1 18 0z" /><circle cx="12" cy="10" r="3"></circle></symbol>
    <symbol id="icon-target" viewBox="0 0 24 24"><circle cx="12" cy="12" r="10"></circle><circle cx="12" cy="12" r="6"></circle><circle cx="12" cy="12" r="2"></circle></symbol>
    <symbol id="icon-shield" viewBox="0 0 24 24"><path d="M12 22s8-4 8-10V5l-8-3-8 3v7c0 6 8 10 8 10z" /></symbol>
    <symbol id="icon-heart" viewBox="0 0 24 24"><path d="M20.84 4.61a5.5 5.5 0 0 0-7.78 0L12 5.67l-1.06-1.06a5.5 5.5 0 0 0-7.78 7.78l1.06 1.06L12 21.23l7.78-7.78 1.06-1.06a5.5 5.5 0 0 0 0-7.78z" /></symbol>
    <symbol id="icon-send" viewBox="0 0 24 24"><line x1="22" y1="2" x2="11" y2="13"></line><polygon points="22 2 15 22 11 13 2 9 22 2"></polygon></symbol>
    <symbol id="icon-google" viewBox="0 0 24 24"><path d="M12.48 10.92v3.28h7.84c-.24 1.84-.853 3.187-1.787 4.133-1.147 1.147-2.933 2.4-6.053 2.4-4.827 0-8.6-3.893-8.6-8.72s3.773-8.72 8.6-8.72c2.6 0 4.507 1.027 5.907 2.347l2.307-2.307C18.747 1.44 16.133 0 12.48 0 5.867 0 .307 5.387.307 12s5.56 12 12.173 12c3.573 0 6.267-1.173 8.373-3.36 2.16-2.16 2.84-5.213 2.84-7.667 0-.76-.053-1.467-.173-2.053H12.48z"/></symbol>
</svg>